<svg width="51" height="133" viewBox="0 0 51 133" fill="none" xmlns="http://www.w3.org/2000/svg">
<path d="M8.22688 84.6007C11.3528 90.1532 14.688 96.0446 18.074 101.147C18.4898 101.774 18.926 101.456 19.0941 101.602C19.5544 101.998 19.1828 102.617 19.4342 102.955C20.6527 104.594 21.6739 106.186 22.8122 107.805C22.9619 108.018 23.1079 108.176 23.2507 108.291L23.0014 107.796C23.9511 108.746 24.8542 107.557 25.4499 108.003C26.7883 108.989 24.2901 108.785 24.0908 109.514C24.9261 110.988 25.8851 112.419 26.8526 113.811C26.8513 113.356 26.8435 112.895 26.8304 112.443C27.1946 113.079 27.9639 113.86 27.9266 112.514C28.1876 112.686 28.4638 112.828 28.7236 113.004C28.0495 113.431 28.5754 114.606 28.2125 114.927C27.8482 115.248 27.6113 114.547 27.5778 114.571C27.0759 114.888 29.1581 117.164 29.3187 117.318C29.7364 117.736 30.3743 116.839 30.5417 117.29C30.8344 118.07 28.8099 118.527 31.6815 118.254C31.1282 119.049 31.5446 118.877 31.8618 119.337C31.9032 119.397 31.4364 119.586 31.4402 119.62C31.519 120.543 32.025 119.526 32.0714 119.506C32.8611 119.167 32.9582 120.14 33.1225 120.269C35.1649 121.872 36.616 123.042 38.0158 125.114C38.3193 125.562 38.7804 127.159 39.1432 127.547C39.5031 127.929 39.927 127.407 40.3127 127.509C39.6475 128.132 39.3886 128.54 39.5502 128.846C39.5948 128.965 39.8234 129.24 39.9028 129.339C40.1673 129.601 40.6588 129.746 41.2931 129.683C41.1032 130.839 41.5288 130.1 42.1673 130.648C42.6985 131.103 43.3652 132.703 44.3063 131.847C43.5747 131.707 43.8085 131.235 43.0958 130.626C42.9407 130.523 40.8891 129.511 40.7982 128.457C40.7704 128.422 40.6903 128.326 40.6747 128.284C40.7339 128.079 40.8571 127.925 41.0762 127.862C41.2121 127.823 41.3124 127.857 41.3872 127.928L41.3656 127.898C41.6399 128.035 41.903 128.576 41.9795 128.526C42.4745 128.108 42.5344 127.252 42.1469 127.237C42.12 127.385 42.1177 127.553 42.1208 127.715C41.8439 127.728 41.7639 127.61 41.792 127.478L41.9228 127.661C42.1142 127.229 43.3665 126.904 41.3181 127.253C40.9896 127.311 40.7108 127.495 40.336 127.507C40.4455 127.414 40.8448 127.431 40.8225 127.251C40.7984 127.066 40.0608 127.077 40.5315 126.778C41.2141 126.337 41.2661 127.131 41.3314 127.156C41.3273 127.159 41.3233 127.162 41.3192 127.165C41.9206 127.398 41.5047 126.477 41.5487 126.399C41.8512 125.889 42.2951 125.901 42.4419 125.285C42.5269 124.936 42.0796 124.393 42.0258 124.132C41.9755 123.873 42.4985 124.038 42.49 123.849C42.4824 123.662 42.127 123.615 42.1153 123.393C42.1114 123.298 42.4882 123.098 42.4818 123.055C42.4163 122.59 41.7749 123.268 41.6309 122.89C41.5397 122.647 41.8467 121.487 42.3514 121.895C42.2869 121.599 42.2095 121.327 42.1297 121.043C42.3281 121.14 42.4932 121.262 42.708 121.343C42.2726 120.972 42.7932 120.405 42.6791 120.085C42.5622 119.761 41.6536 119.928 41.8477 119.395C42.2642 118.27 42.8378 120.177 43.0968 120.311C43.1982 120.363 43.6248 119.715 43.6147 119.656C43.5692 119.396 42.9982 119.377 42.9254 119.2C42.6661 118.56 43.0329 117.885 42.8351 117.256C42.1599 115.116 41.2006 112.599 40.3881 110.739C40.0833 110.045 39.231 109.981 39.0933 109.669C38.7751 108.943 39.2972 108.569 39.0169 107.94C38.6032 107.007 37.4728 105.963 36.9965 105.245C36.6651 104.746 36.9944 104.005 36.9423 103.859C36.7117 103.201 36.4435 102.511 36.1618 101.816C36.1004 101.712 35.9596 101.376 35.8901 101.277C35.1412 99.7954 34.3031 98.3364 33.6764 97.2411C33.2366 96.4718 32.4287 96.457 32.3553 96.2904C32.0361 95.5728 32.6508 95.4557 32.2787 94.9383C32.0777 94.6581 31.5577 94.8913 31.5154 94.8629C31.151 94.6114 31.7477 94.1673 31.6091 93.8845C30.8123 92.2581 29.5107 91.0211 28.541 89.5393C28.4703 89.432 28.1951 89.6101 28.1668 89.5302C28.0525 89.1828 28.5802 89.0599 28.421 88.7212C28.0921 88.0161 27.609 87.3764 27.1334 86.7102C27.0861 86.6438 26.706 86.829 26.6104 86.6698C26.5148 86.5103 26.7848 86.1842 26.6161 85.9461C26.1775 85.3265 25.3801 84.9244 24.9483 84.2519C24.8771 84.14 25.2298 83.7411 25.1223 83.5715C24.7854 83.0395 23.925 82.4933 23.6358 82.0373C22.7007 80.5601 22.1291 79.012 21.3257 77.6028C21.1338 77.2684 20.5585 77.2077 20.4511 77.0412C20.2102 76.6653 20.7641 76.7422 20.5418 76.345C18.7518 73.1398 16.8071 69.9541 15.6432 66.958C15.1823 65.8042 15.2361 64.2854 15.1093 64.033C15.046 63.9563 14.4408 63.9925 14.4294 64.071C14.4197 64.1722 14.6011 64.3981 14.7375 64.6977C14.9841 64.5586 15.2359 64.4153 15.3715 64.0951C15.594 63.5677 15.0443 62.7025 15.2829 62.1491C15.5218 61.5984 16.3314 61.5959 16.6476 61.0073C16.9072 60.5232 16.8639 59.6935 17.1449 59.1816C17.9368 57.7325 18.8056 56.3712 19.5524 55.4727C22.3857 51.7513 24.7091 48.0041 26.6903 44.0331C27.7031 41.9959 29.1026 39.9378 29.6895 37.5915C29.7443 37.3708 28.944 37.2585 29.4442 36.7541C29.7136 36.4839 30.5272 36.3835 31.0128 35.679C31.6795 34.7111 32.2882 33.6922 32.8713 32.6517C34.8871 29.0688 36.5347 25.1576 38.9451 21.9417C43.705 15.5905 52.3413 12.4413 50.5674 2.61755C50.4855 2.12939 48.9626 1.06986 48.432 0.885642C48.601 1.26785 48.8339 1.684 49.0369 2.10267C47.1045 0.818109 47.5916 1.16783 47.1781 2.00253C46.9235 2.52067 46.4393 1.55029 46.0332 1.6068C45.5078 1.67525 43.4678 2.41947 44.8904 3.08538C44.6117 3.01116 44.3458 2.93901 44.0738 2.8658C43.0712 3.77369 41.9842 4.57152 40.8506 5.3588C40.6543 5.4941 40.2631 5.21637 40.062 5.35909C39.5198 5.7398 39.4777 6.32911 39.0583 6.82196C38.8307 7.09011 38.3534 6.80373 38.1115 7.19839C37.8709 7.59241 38.4845 8.02014 37.458 8.05582C36.9329 7.17585 36.4239 9.05806 36.0053 9.55425C35.9451 9.62618 34.8104 9.773 34.6543 10.1658C34.4962 10.5577 34.5805 11.3791 33.9682 11.7266C33.6801 11.8904 33.0365 11.6666 32.8229 11.9108C32.673 12.0825 33.0003 12.6369 32.8581 12.8874C32.7156 13.1379 31.9723 13.3764 31.9008 13.4675C31.6433 13.789 32.2375 13.6458 32.0967 13.8893C31.4127 15.0591 30.7202 16.4815 29.7535 17.4322C29.6344 17.5503 29.3584 17.0927 29.3327 17.1022C28.2207 17.6999 29.0753 17.5545 29.2694 18.0439C29.458 18.5143 28.094 20.1601 27.3867 19.7069C28.2311 20.3385 27.2972 20.294 27.2047 20.3783C26.843 20.7104 27.6583 21.1284 27.1667 21.363C26.9876 21.4487 26.6551 20.8338 26.5697 20.9964C26.3598 21.3973 26.9646 22.2781 26.7202 22.8312C26.6614 22.9652 26.2702 22.7583 26.1396 22.9849C26.0094 23.2111 25.874 24.4024 25.3691 23.4772C25.6305 24.4375 25.2225 24.3147 24.8228 24.9635C24.7253 25.1241 25.1819 25.7231 24.775 25.943C24.6375 26.0166 24.067 25.6386 23.9507 25.8062C23.7891 26.0373 23.8414 26.3905 23.8556 26.7425C23.861 27.0017 23.8452 27.2635 23.7154 27.4843C23.1363 28.4726 22.0605 29.2282 21.5739 30.3273C21.4423 30.6262 22.0668 30.9258 21.8279 31.3289C21.7911 31.3871 20.987 31.5469 20.8621 31.8511C20.7865 32.0341 20.6062 33.1101 20.5277 33.2999C20.3957 33.613 19.7993 33.3118 19.8125 33.5368C19.8499 34.1863 20.9069 34.3418 19.4316 34.1764C19.9515 34.7471 19.6916 35.0247 20.4057 35.6083C19.44 35.2639 20.1095 36.0112 19.6031 36.1912C19.0961 36.3716 17.2641 35.6433 18.9865 36.8288C18.6673 36.8623 17.8596 37.3444 17.7582 37.4479C17.4636 37.7541 18.0717 37.8693 17.8407 38.0943C17.8005 38.1344 17.4954 37.8767 17.342 38.1986C17.2419 38.4104 16.3683 39.8661 16.3606 39.9804C16.2766 41.2876 17.0262 39.6516 17.521 39.6642C17.4488 39.5676 17.376 39.471 17.3065 39.3725C17.4177 38.8388 18.0228 39.5568 18.0766 39.8633C18.1304 40.1696 17.5643 40.3281 17.7114 40.6467C17.7858 40.8058 18.7261 41.3199 18.7699 41.0041C18.8856 41.4428 19.4058 41.2645 19.604 41.5325C19.8212 41.8271 19.1703 43.0719 18.6664 42.7652C18.7867 42.5334 18.9758 42.2679 19.0952 42.0298C18.4066 41.1964 14.8828 40.2386 15.563 41.7874C16.0512 42.9137 17.3417 42.3703 15.7482 43.312C15.8481 43.076 15.881 42.8436 15.9662 42.6268C15.3278 42.1984 15.847 42.961 15.5369 42.9948C15.3866 43.0094 15.2287 42.2379 14.8125 42.56C15.5174 43.5033 14.4074 43.1921 14.0184 43.7812C14.2899 43.7192 14.5589 43.6587 14.8303 43.596C14.8614 45.0377 16.5783 42.8155 15.7025 45.0332C15.8847 44.8124 16.025 44.5732 16.2228 44.3613C16.49 44.6932 17.6088 45.1384 17.7542 45.3766C18.1359 46.0015 17.5435 46.197 17.3799 46.561C17.3076 46.7196 17.6346 46.8011 17.6284 46.8144C17.5304 47.0338 17.1633 46.7382 17.0258 46.8978C16.8543 47.0974 16.8256 47.9834 16.7156 48.0572C16.4323 48.251 15.9424 47.3066 15.8676 47.2949C15.3832 47.22 15.4692 47.7695 14.99 47.4319C15.8723 46.8195 16.9624 44.1391 14.7626 45.7871C14.3472 44.6804 13.1365 44.1547 12.506 44.9451C11.984 45.5949 12.7131 45.4298 12.9589 46.1074C12.9897 46.1937 12.6069 47.2803 12.2362 47.1026C13.0427 47.5799 13.5309 48.3445 14.473 48.6704C14.6124 48.7171 14.8202 48.2994 15.38 48.8612C15.6617 49.1428 16.2406 49.8067 16.6757 50.0489C16.3336 49.9404 15.9536 49.811 15.5992 49.6937C15.1272 50.2223 15.3789 50.5131 15.6963 51.1943C15.484 51.0283 14.748 50.1005 14.7283 50.7429C14.7297 50.7773 15.0518 51.0251 15.0633 51.3654C15.0811 52.0541 15.1134 52.2269 16.3424 52.5401C16.1089 52.6527 15.9549 52.7762 15.8513 52.9088C15.4853 53.3733 16.0199 54.036 15.3451 54.5785C14.116 53.6508 14.6356 53.477 15.3895 52.8736C15.1099 52.6373 14.8222 52.4197 14.5426 52.1769C14.5218 53.7147 14.8176 53.1073 13.7942 53.3717C13.5408 53.4362 13.2325 54.4062 12.4863 53.6227C12.3099 53.4351 12.6484 52.8886 12.282 52.7623C12.2103 52.7357 11.6618 53.3456 11.7183 53.4555C12.4029 54.7941 13.8295 53.812 12.4153 55.6966C12.3761 55.7495 11.9632 55.5806 11.8536 55.6701C11.6481 55.8401 12.1172 56.0555 11.9218 56.1997C11.7267 56.3431 10.9691 56.3419 11.4336 56.8904C12.2874 57.8723 13.4232 56.9018 13.1131 56.1155C14.5507 56.5355 13.0153 60.3559 12.843 60.5924C11.9281 61.4853 12.8671 59.7947 12.5113 59.5584C12.3573 59.4596 10.2231 58.6775 11.778 58.7361C12.2366 58.7589 12.5609 59.5243 12.9128 59.2764C13.2647 59.0312 12.5907 58.9219 12.5564 58.8808C12.4389 58.7403 12.81 58.4751 12.74 58.3959C11.696 57.1445 9.64956 56.3905 12.2498 58.5434C11.4084 58.7001 10.7143 57.3033 10.0468 57.6531C9.23009 58.0946 10.0255 58.9422 10.0403 59.0372C10.2075 60.2102 9.18532 58.5604 9.21684 59.9404C9.24241 60.7025 10.5089 59.2597 9.89813 60.7619C9.4003 62.0253 9.12492 61.1725 7.95369 60.9033C7.68018 60.8401 7.11976 61.4742 7.55447 60.5095C7.86026 60.5765 8.26827 60.6493 8.56187 60.6756C8.42193 60.3679 7.07832 59.4668 7.07266 59.3147C7.04757 58.5862 7.80112 58.8897 7.03803 58.1902C7.9235 58.8115 7.48812 58.162 7.75591 58.0728C8.74385 57.748 8.7184 58.6537 8.26588 56.9276C8.65107 57.2843 9.03858 57.6128 9.42975 57.9541C9.50622 57.8007 9.58269 57.6508 9.66065 57.4983C8.74767 56.8725 9.22954 56.0556 7.90685 56.432C8.00386 55.3676 8.39769 55.071 9.25097 55.2095C9.41397 55.2363 9.5342 55.1226 9.62105 54.9682C9.82176 55.0961 10.4681 55.4335 10.5606 55.4454C11.3738 55.5508 10.3024 54.6406 9.77925 54.5374C9.80946 54.414 9.8257 54.3119 9.82921 54.2751C9.85177 54.0402 9.24185 54.2338 9.17422 54.0017C9.15149 53.9247 9.5201 53.3987 9.3569 53.3023C8.30711 52.6879 8.58365 54.0487 8.95776 51.7901C9.95513 52.2735 9.28496 53.032 10.4515 53.3459C11.6927 53.6993 10.4452 52.4286 11.8666 53.0723C11.6628 52.9123 11.4851 52.7931 11.2488 52.6191C12.2406 52.235 11.1338 51.5808 11.0261 51.2028C10.92 50.8482 11.1997 50.1853 11.5015 49.8955C11.7155 49.6986 11.9386 49.7122 11.9928 50.2358C12.0031 50.4071 11.9944 50.6332 11.9713 50.9165C12.1328 50.7967 12.2786 50.6627 12.426 50.536C12.5114 50.4649 12.5975 50.3939 12.6888 50.327C10.8115 48.9579 11.4816 49.6248 11.9431 48.3077C12.0432 48.0179 11.2494 47.3682 12.4189 47.7995C11.4061 47.1754 12.4903 46.8382 12.4144 46.6896C11.915 45.7417 9.76368 46.6316 11.3688 48.0066C10.5077 47.8193 11.4035 48.4269 11.08 48.6474C10.7512 48.8713 10.5461 48.9093 10.5601 49.2433C10.5525 49.4045 10.5792 49.6285 10.6592 49.9398C10.1373 49.936 10.1908 49.5318 10.3345 49.0871C10.4809 48.5051 10.7657 47.8728 9.38958 48.2701C9.33902 48.2841 9.2863 48.3019 9.23159 48.323C6.77397 49.5202 2.78839 56.5964 1.33802 60.8638C0.437931 64.1183 0.878788 65.5693 0.903111 66.4515C2.06349 73.4537 3.25372 75.2792 5.32514 79.4028C5.52346 79.7897 7.00537 82.7253 7.81721 81.4963C7.93029 81.317 7.69851 79.8641 9.16499 80.4154C8.51948 80.4928 8.51615 81.2979 8.49047 81.3818C7.87883 83.2431 7.20071 82.7633 8.22688 84.6007ZM21.3291 84.039C19.7203 81.9029 21.4625 83.1402 22.8731 81.6682C23.0494 81.9559 23.2262 82.2442 23.405 82.5349C23.2533 82.5206 23.1026 82.5071 22.9511 82.4929C22.9509 82.4926 22.9507 82.4923 22.9505 82.4919C22.4093 83.0063 21.8702 83.5247 21.3291 84.039ZM43.6721 121.703C43.8477 121.485 44.0259 121.271 44.1926 121.049C43.9489 120.771 43.71 120.499 43.4664 120.223C43.3334 120.345 43.1979 120.467 43.0648 120.589C43.2742 120.954 43.4853 121.322 43.6721 121.703ZM13.5189 55.9214C13.0756 55.1877 14.2048 55.7916 13.9603 54.9878C14.7661 55.4892 15.5534 55.9823 16.3559 56.471C16.0412 56.7844 15.6719 56.72 15.6788 57.2478C15.4268 57.0686 15.1745 56.8863 14.9217 56.7053C15.0154 56.66 15.1189 56.6156 15.205 56.5702C14.4944 56.0821 14.0359 56.7508 13.5165 55.922C13.5173 55.9218 13.5181 55.9216 13.5189 55.9214ZM16.2201 52.0784C16.2748 51.7815 16.4968 50.6189 16.902 50.7153C18.2949 51.0269 15.866 53.1314 18.1212 51.8922C18.2704 52.0045 18.4282 52.0971 18.5818 52.1995C18.4027 52.5857 18.216 52.9636 18.0202 53.344C17.4252 52.9114 16.8167 52.5152 16.2201 52.0784ZM16.6531 75.7364C16.3705 75.4406 16.0211 73.4529 17.0576 73.6093C17.3551 73.6464 16.7002 74.9734 16.9001 75.2302C17.0291 75.3969 17.4968 74.8759 17.481 75.3533C17.2169 75.4769 16.9284 75.6216 16.6543 75.7345C16.6539 75.7351 16.6535 75.7357 16.6531 75.7364ZM13.6563 78.2583C13.5505 77.8236 13.4739 77.3734 13.3827 76.9424C14.1895 76.8538 14.0603 77.6232 15.0056 77.1456C15.0196 77.0045 15.0342 76.8653 15.049 76.7251C14.8034 76.7584 14.5583 76.7927 14.3135 76.8269C14.6446 76.2321 15.0041 76.2978 14.5322 75.7721C16.1404 75.3837 16.9152 75.0183 16.056 76.814C16.7099 76.2021 19.2868 75.0215 17.8246 76.5505C17.5539 76.8356 17.0966 76.5286 17.0397 76.5489C16.3523 76.8404 16.0737 77.3154 15.4198 77.5827C15.1243 77.7043 14.9774 77.4286 14.5695 77.6008C14.3706 77.6853 13.978 78.2424 13.6563 78.2583ZM17.356 77.1639C17.6863 76.8327 18.8311 76.6941 18.8318 77.1358C18.836 77.827 17.4821 77.4941 17.356 77.1639ZM43.6724 121.706C43.6723 121.705 43.6722 121.704 43.6721 121.703C43.6715 121.704 43.6708 121.705 43.6701 121.706C43.6709 121.706 43.6717 121.706 43.6724 121.706ZM15.9077 53.4599C16.1436 53.4554 16.3018 53.3658 16.4628 53.3325C16.6387 53.2697 16.8139 53.2594 17.0491 53.443C17.0416 53.2434 17.0367 53.0427 17.0289 52.8423C17.179 52.9466 17.3286 53.0524 17.4772 53.1557C17.3869 53.3885 17.2971 53.6193 17.2078 53.8485C17.1586 54.0204 17.1095 54.1981 17.0624 54.3789C16.6746 54.0779 16.286 53.7748 15.9077 53.4599ZM18.3599 49.0159C18.6281 48.4869 19.055 49.3509 19.4609 49.4584C19.8677 49.5649 19.8803 48.9439 20.3288 49.3059C20.16 49.6106 19.9791 49.9329 19.804 50.241C19.3324 49.8224 18.8338 49.4242 18.3606 49.0149C18.3604 49.0152 18.3601 49.0156 18.3599 49.0159ZM27.4783 93.0544C27.121 92.805 26.6621 93.2673 26.8954 92.2162C26.8957 92.2167 26.896 92.2172 26.8963 92.2177C27.7219 92.592 28.6105 93.1837 28.601 94.1485C27.7711 94.0544 28.0387 93.4484 27.4783 93.0544ZM14.6913 57.8382C14.1709 57.7782 14.0745 56.9605 14.5632 57.0144C15.3476 57.1075 15.4754 57.935 14.6913 57.8382ZM31.3083 109.309C30.1921 110.529 28.1298 110.257 28.2793 108.836C28.2932 108.714 29.0725 109.208 29.2433 108.869C29.2602 108.836 29.0412 108.463 29.1901 108.278C29.3389 108.091 29.8359 107.976 29.9512 107.731C30.1524 107.304 29.2486 106.973 29.5886 106.567C29.6345 106.513 30.416 106.612 30.4499 106.624C30.9987 106.845 30.3897 107.592 30.4132 107.655C30.5339 107.978 31.1286 107.638 31.3107 107.647C31.6538 107.664 31.5062 108.054 31.5351 108.062C32.2995 108.269 31.6307 107.275 31.7851 107.024C32.2018 106.352 32.9276 106.445 32.8315 105.359C32.8222 105.256 32.2969 104.225 33.606 105.221C33.8462 101.964 35.0275 106.13 34.9265 106.699C34.874 106.964 34.146 106.954 33.9391 107.199C33.4675 107.763 33.5861 108.275 32.7179 108.649C30.8914 109.434 31.7595 108.246 31.2579 107.972C30.8906 108.203 30.5198 108.403 30.1796 108.668C30.6287 108.295 31.3932 109.221 31.3118 109.308C31.3106 109.308 31.3095 109.309 31.3083 109.309ZM29.9535 101.572C29.1052 101.294 30.215 100.71 29.2914 100.54C30.0006 99.5156 30.4613 100.469 30.5783 100.547C31.1046 100.896 32.1623 100.281 32.1201 100.97C31.3922 101.154 30.6763 101.375 29.9535 101.572ZM33.0851 106.585C33.4718 105.922 33.7954 106.625 33.9186 106.601C35.2237 106.35 34.0109 104.381 33.0851 106.585ZM13.2449 74.7068C13.1043 74.5295 13.7082 74.3741 13.7784 74.1195C13.8487 73.8628 13.0918 73.5232 13.4336 73.3602C13.7829 73.2132 15.1931 73.813 14.8436 72.6601C15.0519 72.6006 15.1871 72.5165 15.3674 72.4472C15.5187 72.7331 15.6755 73.0177 15.8331 73.3085C15.2064 73.4303 14.5491 73.561 13.9432 73.676C13.5949 74.0642 14.199 73.8719 14.2034 73.8804C14.2028 73.8807 14.2023 73.881 14.2017 73.8813C14.3173 74.2117 13.5617 75.1072 13.2449 74.7068ZM23.6214 88.9144C22.3512 89.7541 23.5364 88.4271 23.587 88.1448C23.6369 87.8626 23.0014 87.8977 23.6202 87.6569C24.1868 87.7238 23.7631 88.8207 23.6197 88.9154C23.6203 88.9151 23.6208 88.9147 23.6214 88.9144ZM28.1584 98.453C28.1978 97.7882 28.5834 97.6639 27.8502 97.3056C28.1806 97.1422 28.518 96.9748 28.8437 96.8143C29.124 97.2778 28.1835 97.7837 28.8686 98.1064C28.9814 98.1591 29.6076 97.5402 29.6035 98.0777C29.1425 98.1903 28.6377 98.327 28.1584 98.453ZM27.9408 95.3911C28.2173 95.9696 25.9101 97.914 26.4707 96.2243C26.5551 95.9729 27.7335 94.9563 27.9408 95.3911ZM15.9619 79.825C15.3621 78.9418 16.3752 79.7553 16.9117 79.7715C16.0083 77.4413 16.9373 80.0734 18.3867 79.5388C18.1614 80.0163 17.5856 80.9999 17.0423 80.5882C16.8167 80.4167 17.2562 80.2727 17.247 80.2604C16.9061 79.8912 16.292 80.3099 15.9619 79.825ZM30.4572 102.611C30.4565 102.564 30.9357 102.368 30.9607 102.203C30.9845 102.038 30.5263 101.958 30.7863 101.777C31.0473 101.594 31.5552 101.993 31.4435 102.267C31.3297 102.54 30.4671 103.031 30.4572 102.611ZM27.2933 99.6338C27.3419 98.9821 29.421 98.7932 29.4738 98.9024C29.9086 99.8508 27.7948 99.3031 27.2933 99.6338ZM14.4262 83.6C14.6003 81.9836 16.5277 81.9806 17.7993 82.1754C17.6771 82.3695 17.5562 82.5664 17.4354 82.7589C18.2592 81.7186 18.8868 80.3731 18.9074 82.5422C18.1338 81.7962 18.2845 82.711 18.2281 82.7524C16.3264 83.9976 16.4627 82.1392 14.4268 83.6011C14.4266 83.6007 14.4264 83.6004 14.4262 83.6ZM31.864 104.086C32.0853 104.593 32.344 106.072 31.1616 105.878C31.3918 105.276 31.6273 104.681 31.864 104.086ZM6.22315 62.8902C6.09246 62.6618 6.0237 62.4307 6.00585 62.1994C5.91221 61.8257 6.02062 61.5001 6.16684 61.1094C6.8015 61.855 6.99281 61.5472 7.23671 61.4378C7.60448 61.2709 7.39338 61.8815 7.44678 61.8989C8.20056 62.1101 8.42931 61.7568 8.1525 62.6366C8.47744 62.4933 8.80409 62.3559 9.12785 62.2185C9.0302 62.6169 9.14695 62.8848 9.35675 63.1582C9.51881 63.2928 9.73318 63.419 9.97066 63.5552C8.52231 63.0392 9.37323 63.5041 8.61303 63.922C8.22995 64.1901 6.42228 63.3882 6.22359 62.8877C6.22344 62.8885 6.2233 62.8894 6.22315 62.8902ZM13.4857 82.5842C13.6578 82.3331 13.9163 82.038 14.1235 81.769C14.0784 81.6303 14.0304 81.4935 13.986 81.3555C13.7666 81.4605 13.539 81.5736 13.3263 81.6714C13.1722 81.5436 13.5017 81.4398 13.5018 81.3759C13.5007 81.3765 13.4995 81.3772 13.4984 81.3778C13.4966 80.4694 13.2905 80.2059 12.3308 80.0266C12.9795 79.6641 13.6282 79.3015 14.277 78.9389C14.2828 79.0946 14.2914 79.2513 14.2998 79.4071C13.988 79.6675 13.6766 79.9288 13.3655 80.1902C13.6372 80.224 13.909 80.2604 14.1785 80.2893C14.1166 80.4716 14.0616 80.6807 13.9952 80.847C16.1169 80.3762 14.174 79.8131 14.9158 79.3707C15.3977 79.0991 16.092 80.3713 15.8701 80.7511C15.837 80.8058 14.3349 81.2959 15.3048 81.3672C15.4581 81.379 18.37 79.7309 16.311 81.584C16.0196 81.8479 14.0748 82.6377 13.4857 82.5842ZM9.89537 78.3684C12.1761 78.0978 8.72418 76.4264 10.905 76.7796C11.599 75.9876 11.6217 76.0585 12.5684 75.981C12.6528 75.9733 12.7711 75.6188 12.8118 75.6224C13.3994 75.7045 13.3746 76.1992 14.1477 75.7886C14.1514 75.8944 14.1573 75.9931 14.1616 76.0995C13.2453 76.1367 13.0608 76.9648 12.5649 77.5097C12.3408 77.7577 12.1336 77.5797 11.9356 77.7934C11.8633 77.8717 12.2114 78.0905 11.9651 78.2421C11.4063 78.5817 10.5231 78.807 9.91441 78.6938C9.91384 78.6941 9.91327 78.6944 9.9127 78.6947C9.90302 78.5866 9.9029 78.4769 9.89537 78.3684ZM20.3999 92.8811C21.4873 92.3937 22.0687 92.7048 22.0062 91.4752C22.2338 91.4015 22.4605 91.3301 22.688 91.2564C22.7646 91.4242 22.8386 91.5873 22.9179 91.7558C20.2137 94.025 24.1118 92.8776 21.6556 93.588C21.3884 93.665 21.4233 93.1387 21.0171 93.881C21.0163 93.8808 21.0154 93.8806 21.0146 93.8805C20.8996 93.2525 21.2209 92.9731 20.3999 92.8811ZM19.0486 89.0211C20.4764 86.5583 21.2196 89.9429 20.3711 89.8115C20.2941 89.7995 20.0272 88.3121 19.0486 89.0211ZM22.8518 99.623C22.5033 99.1155 23.6388 98.3971 24.0872 98.2049C24.5368 98.0121 24.3315 98.6294 24.4251 98.638C24.7334 98.665 24.6835 98.2522 25.0995 98.2781C25.2351 98.287 26.1939 98.9747 26.1689 99.0471C26.0299 99.446 24.8708 99.6597 24.8009 99.7915C24.5706 100.222 25.2427 100.229 24.7706 100.59C23.7642 101.36 24.5807 100.14 24.5437 100.035C24.4293 99.7207 23.8328 100.103 23.5861 99.9627C23.3394 99.8221 23.4679 99.5621 23.3148 99.4008C23.2639 99.3472 22.8715 99.6475 22.8518 99.623ZM24.2564 96.4237C23.7108 97.4969 21.9588 96.7119 22.068 96.4307C22.3951 95.5974 24.5158 95.9093 24.2564 96.4237ZM13.7371 78.6601C13.3805 79.5363 12.1841 78.6116 12.2556 78.1201C12.5583 78.0364 13.8617 78.3633 13.7371 78.6601ZM14.6125 83.9125C14.5366 83.3255 16.3347 83.1141 16.5396 83.5158C15.7319 84.2964 15.7919 83.9709 15.604 83.7381C15.4162 83.5059 14.6711 84.368 14.6125 83.9125ZM27.2317 104.79C27.1606 104.696 27.0198 102.618 27.878 103.372C27.9418 103.426 28.4544 104.661 28.354 104.828C28.1548 105.168 27.4211 105.028 27.2317 104.79ZM14.5484 86.9878C15.2138 86.258 15.0595 86.0212 16.1486 85.6856C16.1488 85.6859 16.149 85.6862 16.1492 85.6866C16.0728 84.8889 14.1012 86.0094 14.0622 85.8474C13.9277 85.2821 15.586 84.9184 15.8677 84.3511C15.8462 85.2988 16.6678 84.5485 17.0351 85.0358C17.1168 85.1451 16.8358 85.947 16.5286 86.2229C16.2208 86.4984 15.0325 86.8752 14.5484 86.9878ZM28.1521 107.155C27.5491 106.717 28.6973 105.55 29.2885 106.252C29.5792 106.595 28.5178 107.418 28.1521 107.155ZM12.2716 48.3C12.5517 48.6028 12.8285 48.9073 13.1008 49.2146C13.3102 49.0773 13.5238 48.9361 13.7355 48.7965C13.5279 48.8794 13.3198 48.9657 13.1132 49.0491C13.2407 48.6077 12.7439 48.0366 12.2722 48.2991C12.272 48.2994 12.2718 48.2997 12.2716 48.3ZM20.3528 34.9125C20.1293 34.54 21.3513 34.8407 21.4044 34.9321C21.7981 35.6155 20.6627 35.4287 20.3528 34.9125ZM10.1268 79.639C9.61994 79.0609 11.5741 78.5818 11.9103 78.9163C11.4491 78.8495 10.4159 79.9677 10.1268 79.639ZM17.521 39.6642C17.6285 39.8082 17.7357 39.9526 17.8393 40.1034C17.7636 39.7842 17.6519 39.6675 17.521 39.6642ZM25.5883 105.373C25.4032 105.347 24.8949 104.699 25.0004 104.512C25.2245 104.121 26.4738 104.145 26.3716 104.636C26.3616 104.691 25.7728 105.396 25.5875 105.371C25.5878 105.372 25.588 105.372 25.5883 105.373ZM12.1912 47.075C12.2061 47.0863 12.2213 47.0955 12.2362 47.1026C12.2213 47.0937 12.2064 47.0836 12.1912 47.075ZM27.316 19.6527C27.3387 19.673 27.3624 19.6915 27.3867 19.7069C27.3641 19.6899 27.3412 19.6707 27.316 19.6527ZM21.2755 101.194C19.5395 101.898 20.0713 100.858 21.1127 100.821C21.1684 100.821 21.2388 101.139 21.2755 101.194Z" fill="black"/>
</svg>
